<?xml version="1.0"?><svg width="640" height="480" xmlns="http://www.w3.org/2000/svg">
 <metadata id="metadata7">image/svg+xml</metadata>
 <g>
  <title>Layer 1</title>
  <g id="layer1">
   <path fill="#007f00" stroke-width="0.45" stroke-miterlimit="4" id="path3031" d="m362.83432,91.000053c-22.298737,-0.000114 -25.758026,0.416161 -27.717438,3.325531c-3.124603,4.640465 -2.904083,7.475723 1.00119,11.876907c2.977905,3.355919 5.616882,3.800613 22.553345,3.800613c13.371857,-0.000122 19.69986,0.720146 20.814453,2.375374c1.891937,2.812416 8.905365,22.154144 8.905365,24.525818c0,0.906418 -35.250214,1.603378 -78.357086,1.603378l-78.409775,0l-3.372467,-7.482452c-1.873383,-4.138939 -3.42514,-7.911484 -3.42514,-8.373215c0,-0.459999 8.049683,-1.895554 17.863495,-3.206764c20.05098,-2.677528 27.36586,-6.649681 22.55336,-12.173828c-2.160065,-2.481857 -8.142334,-3.070023 -34.9366,-3.444305c-21.998566,-0.305969 -32.919037,0.220375 -34.198898,1.662766c-1.033676,1.164841 -1.612442,5.444359 -1.317368,9.501526c0.473846,6.527428 0.96286,10.248589 6.323364,9.501526l8.101364,-1.129234l10.513458,22.401306l-32.898849,56.831451c-23.491776,-7.908356 -44.783432,-9.747772 -68.868263,-0.963028c-11.601273,5.467087 -28.028122,18.651947 -35.568947,28.56395c-9.812187,12.901062 -17.519951,32.508957 -19.813229,50.417465c-0.25246,1.972443 -0.445644,3.963104 -0.579643,5.938446l0,13.59906c2.496288,38.518738 26.168941,74.564575 59.334286,86.998322c15.391914,5.77121 15.725807,5.852844 31.827629,5.22583c12.06163,-0.469391 17.89473,-1.772614 28.297058,-6.354126c15.179474,-6.685303 22.248962,-13.286957 38.098297,-32.780273c16.079926,-19.777008 17.729279,-42.392426 18.337769,-48.338989c1.33046,-0.575867 14.482666,-1.068939 29.245575,-1.068939l26.821625,0l0.263489,15.202454c0.155151,8.361267 -0.352966,19.061859 -0.277039,20.889893c0.109589,2.593903 -0.747711,1.097565 -6.415192,1.557465c-6.390778,0.518799 -7.20694,1.09256 -6.744934,4.750763c0.42157,3.338745 1.829132,4.321716 7.1138,4.81012c3.62204,0.334412 12.322693,-1.23291 14.497955,-1.84671l0.458862,-45.913849l11.33786,-15.959015c6.486969,-9.203217 12.353363,-17.601593 13.068298,-18.646759c0.714996,-1.045258 4.021271,-5.748444 7.324585,-10.45166c3.303345,-4.703323 18.738678,-26.722107 34.30426,-48.932846c15.563965,-22.208878 28.8396,-40.38147 29.509064,-40.38147c0.667786,-0.000122 2.06485,1.925003 3.056305,4.275681c6.036743,14.316772 9.273865,23.849731 10.064667,29.335953c0.782471,5.438675 0.335999,6.478592 -3.530548,8.135681c-6.699341,2.871338 -24.92923,24.698166 -30.352142,36.343323c-6.743225,14.480301 -11.171326,32.987289 -11.171326,46.794998c0,20.371216 12.172516,53.982391 24.608459,67.99527c33.827515,38.121979 82.631714,41.595276 119.459015,8.492004c12.853058,-12.860809 23.74411,-29.758942 28.982147,-48.398376c3.633789,-13.572052 4.097961,-41.926514 0.895752,-53.208557c-12.653503,-44.585007 -46.39032,-73.822601 -84.575043,-73.339874l-27.612061,1.128311l-8.747345,-24.703964c-17.015747,-48.035927 -25.787537,-71.543617 -28.455139,-76.130951c-2.665924,-4.585487 -3.021332,-4.631996 -28.191681,-4.631996zm-119.827866,66.510658l68.503159,0c57.488739,-0.000107 68.45047,0.44516 68.45047,2.672318c0,2.078918 -19.245361,30.812439 -37.782104,56.415283c-1.207367,1.666489 -6.034943,9.103241 -11.171326,16.152588l-28.560547,39.197495l-0.052673,-24.588898c4.391602,-0.118652 13.210083,-0.054626 12.949707,-6.324448c-0.260254,-6.269943 -12.510864,-4.553009 -21.018585,-4.160629l0.84967,35.871948l-52.16777,-115.235657zm-17.231186,11.40184c1.010056,-0.000122 5.499649,7.483368 10.011978,16.627655c4.512405,9.146149 17.205948,34.528976 28.191727,56.355911c10.985809,21.828674 19.777496,40.74765 19.022766,40.737793l-45.475555,-0.593842c-4.893661,-27.189072 -18.779892,-48.961044 -35.447708,-69.092041l23.696793,-44.035477zm230.486816,46.022995c16.12207,0.763885 20.452301,1.688873 28.87674,6.116608c12.483185,6.557938 28.692963,24.85881 34.56778,39.075012c3.86145,9.341827 6.937195,13.008911 7.166443,34.621185c2.334595,21.877625 -9.842102,40.658203 -22.500641,56.296509c-17.934753,19.588318 -44.153992,27.54248 -67.238495,20.368896c-34.706024,-10.786163 -57.729431,-48.874512 -52.431305,-86.760773c2.96106,-21.178925 8.018951,-33.122421 19.707855,-46.557465c13.599457,-15.630081 16.054657,-15.738876 21.077911,-0.772003c1.22757,3.658066 3.839142,10.926743 5.849121,16.152588c2.009979,5.225708 6.648376,17.82428 10.275452,27.970123c7.449799,20.842438 11.716797,25.597961 17.600067,19.596863c4.836639,-7.601898 0.573029,-18.768616 -4.739044,-31.720703c-2.853149,-5.906219 -17.181976,-49.48262 -17.181976,-52.30838c4.00238,-4.500702 13.332642,-2.332123 18.970093,-2.078461zm-277.419113,8.26593c-13.166626,26.225235 -43.525085,71.039307 -39.858994,76.690369c3.834763,5.91095 11.000229,3.942322 45.057053,3.942322l36.201279,0c-3.707977,56.63266 -54.27533,66.526337 -73.967621,65.76767c-32.35627,-1.221222 -66.420807,-29.107452 -66.094986,-80.257477c0.325813,-50.625198 48.498032,-85.656372 98.663269,-66.142883zm15.051956,8.480515c11.797607,12.120468 23.297058,24.041916 25.390961,50.689682l-54.149109,0.870911l28.758148,-51.560593z"/>
  </g>
 </g>
</svg>